PathFileType	4	(X/Y/Z)
DataRate	CameraRate	NumFrames	NumMarkers	Units	OrigDataRate	OrigDataStartFrame	OrigNumFrames	
	120.0	120.0	11	39	mm	120.0	129	206
Frame#	Time	midhip	hip_r	hip_l	knee_r	knee_l	ankle_r	ankle_l	midasis	asis_r	asis_l	psis_r	psis_l	epicondLat_r	epicondLat_l	epicondMed_r	epicondMed_l	malleolusLat_r	malleolusLat_l	malleolusMedv_r	malleolusMedv_l	heel_r	heel_l	sternalnotch	xyphoidprocess	neck	subclavicle_r	subclavicle_l	toe_r	toe_l	thighwand_r	thighwand_l	upperleg1_r	upperleg1_l	upperleg2_r	upperleg2_l	shankwand_r	shankwand_l	lowerleg1_r	lowerleg1_l
	X1	Y1	Z1	X2	Y2	Z2	X3	Y3	Z3	X4	Y4	Z4	X5	Y5	Z5	X6	Y6	Z6	X7	Y7	Z7	X8	Y8	Z8	X9	Y9	Z9	X10	Y10	Z10	X11	Y11	Z11	X12	Y12	Z12	X13	Y13	Z13	X14	Y14	Z14	X15	Y15	Z15	X16	Y16	Z16	X17	Y17	Z17	X18	Y18	Z18	X19	Y19	Z19	X20	Y20	Z20	X21	Y21	Z21	X22	Y22	Z22	X23	Y23	Z23	X24	Y24	Z24	X25	Y25	Z25	X26	Y26	Z26	X27	Y27	Z27	X28	Y28	Z28	X29	Y29	Z29	X30	Y30	Z30	X31	Y31	Z31	X32	Y32	Z32	X33	Y33	Z33	X34	Y34	Z34	X35	Y35	Z35	X36	Y36	Z36	X37	Y37	Z37	X38	Y38	Z38	X39	Y39	Z39

	129	1.07500	1427.497	822.570	-268.631	1422.235	810.493	-195.757	1415.625	814.827	-347.679	1428.811	436.496	-159.565	1426.121	437.323	-388.505	1415.349	65.182	-126.090	1397.742	67.443	-422.784	1514.768	882.193	-270.795	1516.013	878.918	-153.395	1513.523	885.468	-388.195	1322.181	950.613	-233.222	1318.328	947.893	-287.614	1431.367	442.315	-99.903	1430.968	443.886	-447.948	1430.292	433.657	-214.966	1428.031	441.837	-324.728	1395.903	69.224	-89.083	1383.096	72.188	-461.860	1429.437	68.342	-156.640	1405.407	73.643	-394.959	1376.032	33.518	-157.376	1347.741	47.219	-411.871	1504.601	1322.844	-268.755	1548.360	1255.840	-272.728	1383.569	1380.418	-260.526	1511.040	1328.230	-217.355	1504.758	1324.344	-321.880	1508.355	41.013	-67.297	1500.984	43.736	-457.461	1585.395	575.238	-184.264	1464.791	582.856	-518.106	1519.440	631.337	-134.745	1402.189	627.755	-456.717	1507.777	543.655	-126.467	1410.604	540.431	-452.174	1382.511	151.505	-28.650	1493.881	188.133	-406.427	1390.072	157.410	-72.243	1450.673	187.851	-412.208
	130	1.08333	1427.108	822.236	-268.162	1422.263	810.427	-195.752	1415.607	814.753	-347.672	1428.789	436.532	-159.573	1426.112	437.339	-388.490	1415.354	65.160	-126.102	1397.817	67.471	-422.749	1514.724	882.191	-270.816	1516.004	878.920	-153.449	1513.445	885.462	-388.184	1321.993	950.555	-233.196	1318.192	947.718	-287.506	1431.341	442.349	-99.910	1430.928	443.902	-447.936	1430.611	433.617	-215.031	1428.659	442.081	-324.579	1395.905	69.199	-89.096	1383.151	72.212	-461.819	1429.358	68.193	-156.693	1405.199	73.783	-394.877	1376.020	33.523	-157.344	1347.763	47.194	-411.890	1504.579	1322.881	-268.951	1548.411	1255.918	-272.800	1383.408	1380.398	-260.462	1511.013	1328.370	-217.409	1504.735	1324.283	-322.229	1508.352	41.007	-67.333	1500.984	43.740	-457.463	1585.395	575.257	-184.225	1464.705	582.907	-518.172	1519.379	631.422	-134.799	1402.221	627.838	-456.740	1507.868	543.804	-126.517	1410.785	540.446	-452.104	1382.525	151.535	-28.678	1493.887	188.119	-406.426	1390.052	157.403	-72.427	1450.746	187.760	-412.401
	131	1.09167	1426.689	821.878	-267.598	1422.240	810.360	-195.698	1415.484	814.636	-347.615	1428.768	436.567	-159.574	1426.127	437.333	-388.442	1415.362	65.106	-126.110	1397.897	67.480	-422.707	1514.625	882.136	-270.844	1515.981	878.903	-153.489	1513.268	885.370	-388.200	1321.798	950.510	-233.167	1318.069	947.539	-287.371	1431.321	442.378	-99.910	1430.902	443.900	-447.890	1430.693	433.672	-214.932	1428.725	442.090	-324.562	1395.913	69.142	-89.103	1383.204	72.220	-461.766	1429.254	68.237	-156.737	1403.647	75.120	-394.334	1376.001	33.524	-157.299	1347.990	47.046	-411.981	1504.489	1322.805	-269.161	1548.367	1255.871	-272.998	1383.214	1380.274	-260.583	1510.919	1328.308	-217.531	1504.645	1324.198	-322.528	1508.359	40.975	-67.365	1500.976	43.741	-457.461	1585.409	575.275	-184.188	1464.683	582.907	-518.204	1519.319	631.482	-134.726	1402.198	627.790	-456.753	1507.892	543.993	-126.446	1410.785	540.446	-452.104	1382.538	151.569	-28.715	1493.912	187.995	-406.396	1389.977	157.516	-72.421	1451.411	187.984	-413.405
	132	1.10000	1426.445	821.672	-266.983	1422.157	810.288	-195.628	1415.278	814.511	-347.541	1428.754	436.598	-159.578	1426.149	437.313	-388.375	1415.378	65.036	-126.108	1397.958	67.470	-422.683	1514.481	882.038	-270.875	1515.933	878.845	-153.517	1513.029	885.231	-388.233	1321.600	950.481	-233.128	1317.980	947.383	-287.233	1431.307	442.399	-99.913	1430.883	443.886	-447.825	1430.524	433.565	-214.374	1428.504	441.913	-324.660	1395.930	69.069	-89.101	1383.237	72.214	-461.732	1429.012	68.332	-156.828	1402.867	75.876	-394.036	1375.983	33.523	-157.260	1348.320	46.844	-412.106	1504.286	1322.737	-269.221	1548.189	1255.824	-273.116	1383.029	1380.112	-260.820	1510.805	1328.259	-217.534	1504.346	1324.114	-322.658	1508.371	40.929	-67.378	1500.962	43.737	-457.456	1585.428	575.284	-184.158	1464.752	582.851	-518.183	1519.264	631.520	-134.762	1402.084	627.650	-456.746	1507.804	544.146	-126.232	1410.709	540.409	-452.157	1382.551	151.606	-28.756	1493.949	187.777	-406.333	1389.794	157.750	-72.437	1451.730	188.262	-413.782
	133	1.10833	1426.327	821.583	-266.366	1422.016	810.214	-195.564	1415.025	814.394	-347.473	1428.743	436.616	-159.589	1426.169	437.298	-388.306	1415.396	64.970	-126.100	1397.991	67.460	-422.686	1514.306	881.913	-270.901	1515.844	878.755	-153.528	1512.768	885.072	-388.273	1321.401	950.466	-233.091	1317.929	947.264	-287.117	1431.297	442.407	-99.924	1430.866	443.874	-447.759	1430.297	433.439	-213.877	1428.103	441.669	-324.826	1395.947	69.003	-89.094	1383.246	72.212	-461.724	1428.928	68.328	-156.854	1402.357	76.044	-393.968	1375.975	33.524	-157.242	1348.725	46.583	-412.242	1503.971	1322.642	-269.248	1547.842	1255.715	-273.278	1382.858	1379.980	-260.946	1510.645	1328.157	-217.498	1503.873	1324.023	-322.765	1508.380	40.878	-67.370	1500.949	43.732	-457.448	1585.426	575.288	-184.121	1464.866	582.769	-518.124	1519.314	631.651	-134.941	1401.908	627.550	-456.730	1507.693	544.107	-126.085	1410.586	540.343	-452.237	1382.569	151.627	-28.794	1493.981	187.563	-406.261	1389.733	157.831	-72.451	1451.894	187.922	-414.083
	134	1.11667	1426.093	821.416	-265.789	1421.819	810.149	-195.522	1414.750	814.297	-347.429	1428.726	436.616	-159.605	1426.178	437.297	-388.254	1415.399	64.918	-126.094	1397.985	67.466	-422.724	1514.109	881.780	-270.925	1515.708	878.649	-153.536	1512.509	884.912	-388.314	1321.204	950.465	-233.067	1317.901	947.186	-287.045	1431.283	442.400	-99.939	1430.852	443.877	-447.709	1430.213	433.445	-213.773	1428.038	441.659	-324.830	1395.953	68.952	-89.086	1383.224	72.229	-461.755	1429.020	68.262	-156.805	1401.914	76.124	-393.974	1375.982	33.533	-157.251	1348.609	46.638	-412.264	1503.754	1322.549	-269.277	1547.617	1255.617	-273.326	1382.687	1379.874	-260.988	1510.486	1328.087	-217.554	1503.596	1323.905	-322.779	1508.379	40.828	-67.349	1500.940	43.730	-457.441	1585.385	575.288	-184.065	1464.987	582.673	-518.045	1519.310	631.777	-135.032	1401.788	627.628	-456.689	1507.606	544.100	-126.058	1410.593	540.308	-452.219	1382.577	151.615	-28.823	1493.972	187.491	-406.212	1389.797	157.773	-72.429	1452.083	187.497	-414.390
	135	1.12500	1425.777	821.198	-265.282	1421.588	810.095	-195.508	1414.477	814.233	-347.413	1428.722	436.607	-159.643	1426.170	437.308	-388.232	1415.382	64.869	-126.086	1397.934	67.495	-422.797	1513.906	881.653	-270.945	1515.538	878.532	-153.553	1512.275	884.775	-388.337	1321.021	950.477	-233.053	1317.904	947.157	-287.027	1431.262	442.386	-99.976	1430.834	443.891	-447.687	1430.227	433.466	-213.755	1428.212	441.819	-324.701	1395.926	68.907	-89.084	1383.168	72.270	-461.825	1429.106	68.203	-156.752	1401.954	76.029	-394.065	1376.008	33.545	-157.274	1348.126	46.927	-412.188	1503.599	1322.480	-269.390	1547.471	1255.555	-273.426	1382.449	1379.821	-261.019	1510.394	1328.072	-217.640	1503.374	1323.783	-322.932	1508.360	40.800	-67.325	1500.937	43.726	-457.440	1585.310	575.294	-183.994	1465.069	582.581	-517.970	1519.175	631.781	-135.065	1401.792	627.735	-456.671	1507.517	544.310	-126.059	1410.697	540.332	-452.146	1382.565	151.569	-28.835	1493.921	187.571	-406.190	1389.861	157.695	-72.384	1452.089	187.439	-414.338
	136	1.13333	1425.563	821.063	-264.815	1421.359	810.052	-195.517	1414.237	814.216	-347.421	1428.769	436.597	-159.740	1426.149	437.324	-388.237	1415.372	64.822	-126.067	1397.857	67.531	-422.874	1513.722	881.553	-270.953	1515.363	878.413	-153.579	1512.082	884.692	-388.327	1320.855	950.494	-233.045	1317.958	947.169	-287.037	1431.235	442.363	-100.068	1430.814	443.910	-447.691	1430.104	433.512	-213.776	1430.062	441.687	-324.900	1395.870	68.873	-89.091	1383.094	72.316	-461.902	1429.101	68.149	-156.737	1402.328	75.826	-394.198	1376.055	33.558	-157.296	1347.438	47.364	-412.047	1503.365	1322.437	-269.644	1547.227	1255.505	-273.691	1382.127	1379.846	-260.969	1510.289	1328.104	-217.795	1503.008	1323.662	-323.311	1508.327	40.804	-67.304	1500.937	43.717	-457.449	1585.221	575.321	-183.919	1465.063	582.508	-517.932	1519.058	631.699	-135.061	1401.855	627.689	-456.709	1507.382	544.462	-126.059	1411.452	539.906	-452.230	1382.539	151.505	-28.825	1493.844	187.752	-406.191	1389.873	157.627	-72.368	1451.905	187.669	-414.042
	137	1.14167	1425.478	821.032	-264.408	1421.158	810.026	-195.547	1414.060	814.246	-347.450	1428.881	436.589	-159.901	1426.129	437.345	-388.260	1415.412	64.790	-126.026	1397.783	67.552	-422.919	1513.570	881.505	-270.945	1515.191	878.326	-153.605	1511.949	884.684	-388.284	1320.703	950.508	-233.046	1318.031	947.198	-287.047	1431.199	442.334	-100.222	1430.798	443.933	-447.714	1429.942	433.478	-213.842	1433.523	441.260	-325.503	1395.820	68.864	-89.099	1383.023	72.341	-461.947	1429.010	68.122	-156.770	1403.630	74.970	-394.524	1376.099	33.566	-157.319	1346.770	47.817	-411.903	1503.166	1322.492	-269.853	1547.074	1255.582	-273.763	1381.825	1379.894	-260.853	1510.096	1328.276	-218.049	1502.798	1323.600	-323.490	1508.291	40.835	-67.290	1500.943	43.712	-457.460	1585.127	575.373	-183.844	1464.966	582.452	-517.952	1518.974	631.626	-135.069	1401.903	627.649	-456.763	1507.216	544.361	-126.063	1412.824	538.955	-452.479	1382.519	151.439	-28.798	1493.749	188.021	-406.219	1389.831	157.570	-72.377	1451.366	187.975	-413.140
	138	1.15000	1425.547	821.138	-264.085	1420.985	810.037	-195.579	1413.947	814.303	-347.484	1429.055	436.598	-160.107	1426.120	437.373	-388.290	1415.511	64.764	-125.960	1397.741	67.543	-422.906	1513.441	881.518	-270.921	1515.015	878.306	-153.620	1511.866	884.730	-388.222	1320.566	950.524	-233.044	1318.083	947.231	-287.048	1431.162	442.314	-100.417	1430.790	443.960	-447.745	1429.768	433.436	-213.937	1435.132	441.198	-325.615	1395.790	68.867	-89.105	1382.983	72.329	-461.936	1428.940	68.124	-156.796	1405.313	73.660	-395.030	1376.122	33.567	-157.327	1346.359	48.117	-411.794	1502.968	1322.629	-269.900	1546.949	1255.759	-273.668	1381.619	1379.923	-260.784	1509.766	1328.447	-218.149	1502.729	1323.709	-323.473	1508.262	40.878	-67.284	1500.958	43.713	-457.465	1585.043	575.447	-183.756	1464.799	582.407	-518.018	1518.872	631.590	-135.111	1401.945	627.691	-456.806	1507.002	544.225	-126.076	1413.409	538.433	-452.513	1382.534	151.383	-28.744	1493.652	188.320	-406.264	1389.827	157.577	-72.374	1450.732	187.853	-412.091
	139	1.15833	1425.578	821.227	-263.779	1420.849	810.090	-195.602	1413.887	814.382	-347.510	1429.271	436.631	-160.323	1426.114	437.397	-388.316	1415.646	64.733	-125.878	1397.743	67.502	-422.838	1513.335	881.594	-270.885	1514.850	878.362	-153.622	1511.820	884.826	-388.147	1320.435	950.552	-233.033	1318.108	947.260	-287.045	1431.133	442.313	-100.622	1430.783	443.984	-447.771	1429.343	433.568	-213.956	1434.997	441.498	-325.107	1395.776	68.867	-89.108	1382.986	72.277	-461.869	1428.946	68.230	-156.777	1406.054	73.093	-395.224	1376.121	33.559	-157.316	1346.325	48.192	-411.740	1502.661	1322.692	-269.865	1546.638	1255.822	-273.671	1381.410	1379.956	-260.797	1509.291	1328.367	-217.962	1502.598	1323.918	-323.549	1508.255	40.919	-67.287	1500.977	43.719	-457.464	1584.974	575.535	-183.644	1464.556	582.352	-518.110	1518.820	631.572	-135.132	1401.941	627.642	-456.812	1506.703	544.210	-126.044	1413.201	538.389	-452.262	1382.578	151.352	-28.673	1493.577	188.558	-406.307	1389.883	157.666	-72.247	1450.443	187.740	-411.702
